<svg xmlns="http://www.w3.org/2000/svg" width="300" height="300" viewBox="0 0 300 300">
  <g fill="#000000" stroke="none" transform="translate(0,300) scale(0.1,-0.1)">
    <path d="M1514 2680 c-68 -35 -100 -57 -92 -65 3 -3 33 11 67 31 65 39 152 57 165 35 5 -7 -3 -11 -20 -11 -15 0 -49 -14 -76 -31 -28 -18 -67 -34 -93 -37 -29 -3 -45 -10 -45 -18 0 -20 53 -44 97 -44 33 0 40 -5 54 -33 18 -36 58 -48 79 -23 26 32 54 10 43 -33 -3 -12 0 -42 8 -68 l13 -46 -40 -33 c-45 -39 -69 -43 -77 -14 -4 17 -12 20 -48 18 -42 -3 -43 -2 -52 36 -6 22 -17 40 -27 43 -13 4 -16 14 -12 56 4 57 -18 101 -69 139 -78 58 -198 33 -241 -52 -37 -72 39 -97 123 -40 53 36 64 37 48 8 -11 -21 -11 -22 4 -9 10 7 17 11 17 7 0 -4 10 0 23 8 15 10 27 12 37 6 12 -8 11 -10 -5 -10 -12 0 -27 -6 -34 -12 -6 -7 -24 -13 -39 -13 -15 0 -26 -6 -25 -12 4 -18 -86 -93 -103 -86 -25 9 -11 37 21 43 33 7 79 29 73 35 -2 2 -22 -2 -44 -10 -38 -13 -154 -11 -154 3 0 3 8 11 18 18 15 12 15 13 1 14 -17 0 -79 -88 -79 -113 0 -9 17 -34 39 -57 34 -36 41 -39 65 -30 25 9 26 8 20 -18 -13 -53 -43 -99 -71 -110 -15 -6 -52 -18 -81 -27 -80 -26 -84 -40 -89 -325 -5 -221 -4 -238 16 -290 26 -67 38 -87 47 -77 4 3 2 12 -3 19 -5 7 -18 33 -28 58 -16 39 -18 72 -16 265 1 121 6 237 12 258 12 47 36 57 130 57 39 0 79 4 89 10 20 11 33 50 24 74 -11 27 -24 17 -18 -13 9 -44 -24 -61 -109 -59 l-68 2 62 21 c75 24 96 49 119 142 16 65 16 70 -1 105 -11 20 -27 42 -36 48 -17 11 -17 11 0 6 10 -3 23 -6 28 -6 5 0 9 -8 9 -19 0 -23 25 -45 44 -38 11 5 13 -1 9 -27 -7 -43 33 -91 89 -108 40 -12 41 -12 70 22 16 19 31 46 34 60 3 14 9 34 14 45 8 18 9 18 9 -6 1 -30 30 -75 31 -47 0 9 -4 20 -10 23 -5 3 -10 18 -10 33 1 26 1 26 16 7 8 -11 18 -32 21 -47 3 -17 13 -28 27 -31 18 -3 15 -6 -16 -20 -43 -20 -68 -51 -68 -87 0 -21 3 -19 19 16 14 30 28 44 52 53 18 6 41 19 51 27 16 16 19 15 36 -6 18 -22 22 -23 51 -11 17 8 45 29 61 48 38 43 38 36 0 -25 -48 -78 -89 -176 -115 -275 -27 -104 -56 -309 -43 -305 9 3 44 95 80 208 34 106 30 101 52 84 19 -14 19 -14 -2 -14 -12 0 -22 -4 -22 -10 0 -14 15 -13 55 4 35 15 47 36 21 36 -19 0 -29 30 -15 46 16 19 31 7 23 -18 -4 -15 -3 -18 6 -13 7 4 10 19 7 35 -3 15 -1 32 6 39 16 16 -5 13 -31 -5 -21 -14 -22 -14 -22 10 0 14 -5 28 -11 32 -8 5 -10 -3 -5 -28 5 -28 2 -38 -19 -58 -13 -13 -31 -48 -40 -79 -22 -79 -57 -172 -62 -167 -16 16 53 271 107 391 21 47 23 49 33 28 7 -15 19 -23 36 -23 30 0 59 16 48 26 -3 4 -13 1 -22 -6 -8 -7 -21 -10 -29 -7 -20 8 -26 58 -10 81 18 26 17 56 -1 80 -9 12 -15 41 -15 71 0 73 -35 99 -73 54 -15 -17 -21 -18 -33 -8 -38 31 -35 45 16 77 31 19 52 40 56 56 8 33 27 33 53 0 25 -32 27 -77 6 -154 -13 -49 -13 -71 0 -59 13 13 36 137 32 167 -7 42 -18 55 -82 98 -64 42 -95 43 -171 4z m156 -34 c0 -14 -64 -76 -78 -76 -4 1 9 14 28 30 19 17 28 30 21 30 -7 0 -29 -16 -49 -36 -38 -38 -77 -47 -130 -30 -35 11 -26 26 16 26 25 0 55 12 92 35 56 36 100 45 100 21z m-315 -65 c52 -24 79 -55 81 -94 2 -24 0 -27 -8 -14 -5 10 -6 22 -3 27 3 5 -6 15 -20 22 -21 9 -31 9 -46 0 -16 -10 -19 -9 -19 3 0 23 -22 18 -67 -15 -45 -33 -90 -46 -113 -31 -26 17 12 78 63 101 53 24 81 25 132 1z m66 -118 c11 -28 9 -45 -9 -116 -14 -53 -53 -107 -77 -107 -11 0 -32 7 -45 16 -82 55 -64 113 62 205 50 36 56 36 69 2z m-351 -89 c0 -21 -4 -33 -10 -29 -17 10 -11 65 7 65 2 0 3 -16 3 -36z m78 2 c12 -25 12 -30 -3 -45 -15 -15 -18 -14 -36 8 -19 24 -25 52 -12 65 14 13 38 0 51 -28z m-12 -63 c20 3 22 2 13 -9 -24 -29 -69 -9 -69 30 0 19 1 19 16 -3 12 -16 23 -22 40 -18z"/>
    <path d="M1750 2356 c0 -29 29 -63 109 -124 42 -33 83 -69 91 -79 12 -15 12 -16 0 -5 -8 6 -30 12 -49 12 -28 0 -43 -9 -77 -45 -53 -55 -90 -161 -100 -291 l-7 -89 -71 -70 c-123 -121 -185 -172 -198 -163 -21 13 -83 9 -121 -7 -82 -34 -142 -112 -154 -202 l-6 -47 -12 40 c-7 21 -26 62 -43 91 -90 151 -114 257 -72 315 30 40 23 48 -8 11 l-28 -32 10 58 c5 33 6 66 1 77 -6 13 -12 -14 -18 -87 l-9 -106 37 -94 c21 -52 52 -119 71 -149 35 -60 47 -88 58 -135 l6 -30 -15 25 c-19 33 -19 7 0 -30 23 -45 65 -42 92 8 72 129 69 122 54 122 -4 0 -23 -30 -41 -67 -32 -65 -55 -74 -30 -12 7 16 10 32 7 36 -9 8 -27 -42 -27 -73 0 -16 -4 -23 -11 -18 -8 4 -9 27 -5 66 7 72 47 150 93 185 43 33 114 54 150 44 l28 -8 -38 -12 c-45 -15 -110 -68 -101 -83 4 -5 21 -7 40 -3 20 3 34 2 34 -4 0 -6 -21 -36 -46 -66 -47 -59 -51 -75 -14 -55 12 6 19 14 17 17 -3 3 10 25 29 50 50 65 36 95 -31 68 -46 -19 17 33 67 55 47 20 51 20 69 4 26 -24 24 -71 -6 -119 -13 -22 -25 -34 -25 -27 0 17 -14 15 -41 -8 l-24 -20 28 4 c24 4 27 3 16 -10 -6 -8 -9 -18 -5 -22 10 -9 42 33 72 93 l24 50 0 -46 c0 -86 132 -327 277 -507 190 -234 399 -350 613 -340 88 4 140 23 163 59 13 20 1 68 -19 76 -25 10 -28 -6 -4 -25 19 -15 21 -22 11 -39 -20 -38 -89 -56 -200 -51 -55 2 -103 7 -107 10 -4 4 8 24 26 44 23 27 31 44 28 64 l-4 27 105 6 c147 7 191 30 155 84 -33 52 -177 92 -334 94 -164 1 -230 21 -166 50 29 14 36 32 9 22 -25 -9 -53 -34 -53 -48 0 -22 48 -33 176 -40 126 -7 254 -21 263 -31 6 -6 -29 -30 -118 -81 l-74 -43 -69 15 c-170 35 -321 171 -475 427 -59 99 -126 228 -118 228 2 0 19 -28 36 -62 46 -92 63 -108 118 -108 64 1 128 31 137 66 4 15 3 81 -2 148 -10 144 -10 260 -2 301 4 17 18 58 33 93 49 116 70 302 42 364 -7 14 -48 55 -92 90 -43 34 -90 78 -102 97 -15 22 -23 28 -23 17z m194 -228 c37 -53 6 -259 -60 -395 -43 -90 -104 -153 -223 -228 -94 -59 -108 -81 -78 -115 6 -8 2 -6 -10 4 -12 10 -28 16 -35 14 -8 -3 -22 13 -34 39 l-22 45 32 26 c17 15 74 69 127 122 l96 95 6 91 c11 151 55 260 124 306 37 24 59 23 77 -4z m-79 -489 c-4 -12 1 -96 10 -188 13 -124 14 -173 6 -194 -13 -33 -64 -57 -124 -60 -48 -2 -55 6 -128 141 l-49 91 22 16 c13 9 58 38 100 66 42 27 96 71 120 99 24 27 44 49 46 50 2 0 0 -10 -3 -21z m-224 -400 c99 -190 164 -284 274 -395 101 -101 174 -145 272 -164 l63 -13 -25 -29 c-14 -17 -25 -42 -25 -59 0 -16 -2 -29 -5 -29 -15 0 -117 57 -170 95 -74 52 -195 178 -274 284 -146 198 -268 472 -204 459 11 -2 47 -59 94 -149z m887 -469 c37 -23 41 -44 11 -60 -22 -12 -217 -35 -226 -26 -3 2 21 18 54 34 32 16 69 39 83 51 31 25 37 26 78 1z m-238 -135 c0 -34 -54 -94 -70 -79 -14 14 -6 43 21 78 26 33 49 34 49 1z"/>
    <path d="M1575 2228 c-5 -21 -35 -271 -35 -290 0 -5 4 -8 8 -8 5 0 14 53 21 118 16 149 25 194 36 169 4 -9 5 -26 2 -38 -3 -13 -1 -19 6 -16 19 6 20 47 1 68 -22 25 -32 24 -39 -3z"/>
    <path d="M1280 2211 c0 -27 40 -53 104 -69 109 -27 111 -31 111 -265 0 -178 -2 -196 -23 -241 -25 -55 -25 -56 -14 -56 17 0 43 75 53 151 16 115 8 326 -13 365 -18 33 -62 56 -130 68 -22 4 -45 17 -57 31 -20 26 -31 32 -31 16z"/>
    <path d="M1731 2154 c-37 -48 -18 -62 24 -19 14 13 25 29 25 35 0 19 -29 10 -49 -16z"/>
    <path d="M1264 1956 c-19 -19 -37 -47 -40 -63 l-6 -29 -47 47 c-70 71 -143 78 -164 16 -14 -42 -1 -85 48 -168 25 -41 45 -77 45 -80 0 -4 -9 -9 -20 -12 -27 -7 -16 -32 21 -47 43 -18 45 -30 4 -23 -42 7 -48 -11 -10 -29 14 -6 25 -15 25 -21 0 -5 -16 0 -35 12 -37 21 -53 14 -35 -18 12 -23 52 -39 58 -22 2 6 10 11 18 11 22 0 17 26 -8 42 -22 15 -22 15 11 10 26 -4 33 -2 29 9 -4 11 11 14 81 14 95 0 134 15 151 59 5 13 12 83 16 155 6 118 5 133 -11 151 -12 14 -31 20 -58 20 -31 0 -46 -7 -73 -34z m101 18 c28 -11 33 -44 24 -164 -12 -154 -13 -159 -55 -176 -50 -21 -182 -20 -237 1 -17 7 -17 8 2 22 25 17 19 37 -36 119 -30 46 -37 65 -38 106 0 39 4 53 20 64 31 21 95 -13 141 -75 21 -28 41 -51 44 -51 3 0 14 19 25 43 17 35 28 45 65 57 40 13 42 15 18 18 -36 4 -65 -12 -89 -51 -18 -27 -19 -28 -13 -7 11 38 34 69 63 85 29 16 42 18 66 9z"/>
    <path d="M837 1493 c-13 -12 -7 -24 24 -52 24 -22 29 -34 24 -51 -6 -19 -9 -20 -23 -7 -10 8 -24 12 -32 10 -12 -4 -12 -3 -1 5 29 21 -40 92 -90 92 -41 0 -36 -15 16 -46 25 -14 45 -27 45 -29 0 -1 -11 0 -24 2 -25 5 -96 -23 -96 -38 0 -14 24 -11 46 6 10 8 23 15 29 15 5 0 -1 -7 -13 -16 -12 -8 -20 -20 -16 -26 4 -6 10 -6 17 1 6 6 25 11 42 11 16 0 37 5 45 10 10 6 20 4 33 -8 11 -9 21 -12 25 -7 11 15 85 17 94 2 4 -6 8 -21 8 -32 0 -17 -2 -17 -10 -5 -6 10 -10 11 -10 3 0 -7 -9 -13 -20 -13 -25 0 -26 -16 -2 -23 9 -2 24 -8 32 -11 12 -5 16 4 18 42 3 52 -14 79 -42 69 -10 -4 -13 -1 -9 9 7 20 -5 47 -18 38 -8 -4 -7 -9 2 -15 11 -7 10 -12 -5 -26 -18 -17 -18 -17 -13 0 9 24 -3 53 -14 36 -6 -10 -10 -6 -17 12 -11 29 -36 52 -45 42z"/>
    <path d="M814 1345 c-10 -8 -33 -15 -50 -15 -18 0 -34 -6 -37 -13 -3 -8 -30 -25 -61 -38 -31 -13 -56 -27 -56 -31 0 -15 24 -7 87 27 55 30 62 32 53 14 -17 -31 -5 -34 14 -4 10 15 23 24 31 21 7 -2 19 2 25 10 10 11 10 14 -1 15 -8 0 -5 4 6 8 28 11 45 3 57 -28 6 -15 12 -21 15 -13 7 19 -25 62 -45 62 -10 0 -27 -7 -38 -15z"/>
    <path d="M1010 1311 c0 -41 -9 -50 -39 -38 -16 6 -36 7 -47 2 -15 -7 -12 -10 20 -14 50 -8 67 -32 42 -60 -24 -26 -40 -27 -27 -3 13 25 -6 47 -26 31 -9 -8 -10 -16 -2 -30 5 -10 6 -19 1 -19 -14 0 -32 23 -32 41 0 10 -5 21 -12 25 -8 5 -9 -2 -4 -27 4 -22 3 -30 -4 -23 -5 5 -11 22 -12 37 -2 23 -6 25 -28 20 -22 -6 -23 -4 -12 9 10 12 10 18 1 23 -10 7 -29 -10 -29 -28 0 -4 11 -12 24 -18 l23 -11 -19 -61 c-42 -138 -113 -256 -255 -428 -43 -52 -85 -110 -92 -128 -25 -59 18 -103 85 -87 63 16 177 159 239 300 50 112 93 268 68 242 -4 -3 -17 -43 -30 -89 -48 -166 -158 -353 -242 -411 -43 -30 -87 -32 -105 -4 -15 25 9 68 105 183 136 164 205 284 242 420 13 49 13 49 26 26 10 -17 10 -25 2 -31 -6 -3 -13 -15 -15 -26 -3 -10 -7 -27 -11 -36 -14 -36 11 -16 35 27 17 31 31 45 45 44 11 0 14 -3 7 -6 -7 -3 -19 -18 -28 -35 -14 -27 -14 -32 0 -46 13 -13 17 -13 32 -1 15 12 16 11 10 -18 -5 -20 -3 -34 5 -39 9 -5 11 6 5 50 -6 53 -5 56 10 42 20 -21 74 -21 74 -1 0 11 -11 15 -40 15 -28 0 -40 4 -40 14 0 23 49 30 71 10 11 -10 22 -14 25 -11 12 11 -18 37 -42 37 -23 0 -23 0 -6 29 l17 30 25 -39 c14 -22 29 -40 33 -40 5 0 -1 16 -13 35 -38 62 -52 96 -47 116 3 10 1 19 -4 19 -5 0 -9 -9 -9 -19z m-65 -183 c-4 -13 -11 -27 -16 -32 -15 -17 -23 3 -11 29 15 32 36 34 27 3z"/>
    <path d="M1369 1300 c-16 -13 -19 -19 -10 -20 11 0 8 -6 -7 -23 -44 -47 -13 -52 38 -6 19 17 30 28 23 25 -6 -3 -19 -3 -28 0 -15 6 -14 8 1 25 22 25 13 24 -17 -1z"/>
    <path d="M1050 1263 c0 -4 15 -32 33 -62 49 -82 93 -101 62 -26 -9 20 -19 35 -21 32 -3 -3 0 -15 6 -27 6 -12 9 -24 6 -27 -2 -3 -19 20 -36 51 -30 53 -50 77 -50 59z"/>
    <path d="M773 1214 c-3 -8 -12 -14 -21 -14 -8 0 -12 -3 -9 -7 4 -3 -1 -15 -10 -26 -17 -19 -17 -19 4 -13 18 6 22 4 17 -7 -10 -27 15 -28 32 -1 15 22 15 27 3 35 -11 7 -9 10 9 15 28 8 28 20 1 27 -12 3 -22 0 -26 -9z"/>
    <path d="M974 1064 c8 -31 32 -61 41 -52 8 7 -20 64 -36 74 -9 5 -10 -1 -5 -22z"/>
    <path d="M1029 1060 c27 -23 41 -25 41 -6 0 15 -21 26 -48 26 -14 -1 -12 -5 7 -20z"/>
  </g>
</svg>
